<svg xmlns="http://www.w3.org/2000/svg" width="24" height="24" viewBox="0 0 24 24">
    <path fill="#ffffff" d="M12 2.2c3.2 0 3.6 0 4.9.07a7.6 7.6 0 0 1 2.6.5 5.2 5.2 0 0 1 1.9 1.2 5.2 5.2 0 0 1 1.2 1.9 7.6 7.6 0 0 1 .5 2.6c.07 1.3.07 1.7.07 4.9s0 3.6-.07 4.9a7.6 7.6 0 0 1-.5 2.6 5.2 5.2 0 0 1-1.2 1.9 5.2 5.2 0 0 1-1.9 1.2 7.6 7.6 0 0 1-2.6.5c-1.3.07-1.7.07-4.9.07s-3.6 0-4.9-.07a7.6 7.6 0 0 1-2.6-.5 5.2 5.2 0 0 1-1.9-1.2 5.2 5.2 0 0 1-1.2-1.9 7.6 7.6 0 0 1-.5-2.6c-.07-1.3-.07-1.7-.07-4.9s0-3.6.07-4.9a7.6 7.6 0 0 1 .5-2.6A5.2 5.2 0 0 1 4.5 2.8 5.2 5.2 0 0 1 6.4 1.6a7.6 7.6 0 0 1 2.6-.5c1.3-.07 1.7-.07 4.9-.07zM12 5.7a6.3 6.3 0 1 0 6.3 6.3A6.3 6.3 0 0 0 12 5.7zm0 10.5a4.2 4.2 0 1 1 4.2-4.2 4.2 4.2 0 0 1-4.2 4.2zm5.3-11.6a1.5 1.5 0 1 1 1.5 1.5 1.5 1.5 0 0 1-1.5-1.5z"/>
</svg>
